<svg width="119" height="242" viewBox="0 0 119 242" fill="none" xmlns="http://www.w3.org/2000/svg">
<path d="M55.4038 239.596C57.9422 242.135 62.0578 242.135 64.5962 239.596L105.962 198.23C108.5 195.692 108.5 191.576 105.962 189.038C103.424 186.5 99.308 186.5 96.7696 189.038L60 225.808L23.2305 189.038C20.692 186.5 16.5765 186.5 14.0381 189.038C11.4997 191.576 11.4997 195.692 14.0381 198.23L55.4038 239.596ZM53.5 60L53.5 235L66.5 235L66.5 60L53.5 60Z" fill="black"/>
<path d="M20.412 14.728V19.66H13.716V40H7.56V19.66H0.864V14.728H20.412ZM29.6575 23.26C30.3775 22.156 31.2775 21.292 32.3575 20.668C33.4375 20.02 34.6375 19.696 35.9575 19.696V26.212H34.2655C32.7295 26.212 31.5775 26.548 30.8095 27.22C30.0415 27.868 29.6575 29.02 29.6575 30.676V40H23.5015V19.912H29.6575V23.26ZM59.42 19.912L46.82 49.54H40.196L44.804 39.316L36.632 19.912H43.508L48.152 32.476L52.76 19.912H59.42ZM73.9221 40L67.8021 31.576V40H61.6461V13.36H67.8021V28.084L73.8861 19.912H81.4821L73.1301 29.992L81.5541 40H73.9221ZM96.176 40L90.056 31.576V40H83.9V13.36H90.056V28.084L96.14 19.912H103.736L95.384 29.992L103.808 40H96.176ZM114.254 13.828L113.534 31.072H108.314L107.594 13.828H114.254ZM111.014 40.288C109.934 40.288 109.046 39.976 108.35 39.352C107.678 38.704 107.342 37.912 107.342 36.976C107.342 36.016 107.678 35.212 108.35 34.564C109.046 33.916 109.934 33.592 111.014 33.592C112.07 33.592 112.934 33.916 113.606 34.564C114.302 35.212 114.65 36.016 114.65 36.976C114.65 37.912 114.302 38.704 113.606 39.352C112.934 39.976 112.07 40.288 111.014 40.288Z" fill="black"/>
</svg>
